<?xml version="1.0" standalone="no"?><!DOCTYPE svg PUBLIC "-//W3C//DTD SVG 1.1//EN" "http://www.w3.org/Graphics/SVG/1.1/DTD/svg11.dtd"><svg t="1592136674425" class="icon" viewBox="0 0 1024 1024" version="1.1" xmlns="http://www.w3.org/2000/svg" p-id="1301" xmlns:xlink="http://www.w3.org/1999/xlink" width="200" height="200"><defs><style type="text/css"></style></defs><path d="M811.92875 225.785zM813.921875 512c97.86-93.571875 145.389375-185.23125 113.769375-240-18.05625-31.27125-59.4-46.215-115.7625-46.215v45c39.51 0 68.218125 8.866875 76.7925 23.715 6.766875 11.7225 3 29.746875-1.355625 42.804375-8.349375 25.040625-26.52 54.9975-52.539375 86.62875-15.795 19.198125-34.003125 38.551875-54.256875 57.789375-27.90375-24.091875-58.94625-48.054375-92.62125-71.304375-3.294375-40.7625-8.521875-79.60875-15.429375-115.798125 52.678125-15.624375 100.486875-23.829375 139.389375-23.833125l0.020625-45h-0.024375c-42.350625 0.00375-93.18375 8.4675-148.944375 24.75375C630.86 118.9925 575.241875 32 512 32S393.14 118.9925 361.03625 250.533125c-55.756875-16.28625-106.591875-24.748125-148.9425-24.748125-56.3625 0-97.7325 14.945625-115.786875 46.215-31.621875 54.76875 15.905625 146.428125 113.7675 240C112.2125 605.57 64.685 697.23125 96.306875 752c18.05625 31.275 59.409375 46.213125 115.786875 46.213125 42.34875 0 93.18375-8.465625 148.9425-24.75C393.14 905.0075 448.75625 992 512 992c63.241875 0 118.86-86.9925 150.96375-218.533125 55.756875 16.288125 106.59375 24.748125 148.944375 24.748125 56.3625 0 97.7325-14.9475 115.786875-46.215 31.61625-54.766875-15.909375-146.43-113.773125-240z m-67.03875 0c-17.45625 14.88375-36.050625 29.61-55.648125 44.05125 0.496875-14.50875 0.765-29.195625 0.765-44.05125 0-14.85375-0.268125-29.540625-0.76125-44.05125 19.5975 14.44125 38.191875 29.1675 55.644375 44.05125z m-117.421875 203.31375c-21.613125-7.68375-43.651875-16.425-65.878125-26.12625a1294.3321875 1294.3321875 0 0 0 38.413125-21.301875c12.864375-7.426875 25.449375-15 37.77-22.685625-2.701875 24.155625-6.151875 47.5875-10.305 70.11375zM579.5 628.91375a1229.65125 1229.65125 0 0 1-67.5 36.2025 1223.8875 1223.8875 0 0 1-67.5-36.2025 1242.87 1242.87 0 0 1-65.154375-40.32375C377.79875 563.5475 377 537.955625 377 512s0.79875-51.5475 2.345625-76.588125A1242.886875 1242.886875 0 0 1 444.5 395.08625a1227.65625 1227.65625 0 0 1 67.5-36.200625 1225.79625 1225.79625 0 0 1 67.5 36.200625 1242.886875 1242.886875 0 0 1 65.154375 40.325625C646.20125 460.4525 647 486.044375 647 512s-0.79875 51.5475-2.345625 76.59A1241.61375 1241.61375 0 0 1 579.5 628.91375zM384.23 645.2A1284.6421875 1284.6421875 0 0 0 422 667.885625 1291.96875 1291.96875 0 0 0 460.413125 689.1875c-22.2225 9.70125-44.263125 18.440625-65.874375 26.1225-4.153125-22.524375-7.605-45.95625-10.30875-70.11z m-51.46875-89.146875c-19.5975-14.443125-38.19375-29.17125-55.648125-44.053125 17.454375-14.88375 36.050625-29.61 55.648125-44.053125-0.495 14.5125-0.76125 29.1975-0.76125 44.053125s0.26625 29.5425 0.76125 44.053125z m61.7775-247.363125c21.61125 7.681875 43.651875 16.423125 65.874375 26.1225A1294.3321875 1294.3321875 0 0 0 422 356.114375a1293.7284375 1293.7284375 0 0 0-37.77 22.685625c2.70375-24.15375 6.155625-47.585625 10.30875-70.11zM602 356.114375A1294.2534375 1294.2534375 0 0 0 563.58875 334.8125c22.224375-9.699375 44.26125-18.43875 65.87625-26.120625 4.153125 22.5225 7.603125 45.9525 10.305 70.108125A1297.8984375 1297.8984375 0 0 0 602 356.114375zM426.85625 188.39c14.38125-38.35125 31.239375-69.06375 48.751875-88.815C484.7375 89.275625 498.4625 77 512 77c13.539375 0 27.260625 12.275625 36.391875 22.575 17.5125 19.75125 34.366875 50.46375 48.751875 88.815 8.73 23.281875 16.385625 48.729375 22.921875 75.8925-34.815 12.118125-71.0925 27.0225-108.06375 44.56125-36.973125-17.540625-73.24875-32.445-108.065625-44.565 6.534375-27.16125 14.19-52.60875 22.92-75.88875zM189.171875 423.933125c-26.02125-31.63125-44.19-61.58625-52.539375-86.62875-4.35375-13.055625-8.1225-31.081875-1.35375-42.804375 8.5725-14.848125 37.29-23.713125 76.816875-23.715h0.00375c38.89875 0 86.705625 8.205 139.381875 23.829375-6.9075 36.19125-12.133125 75.0375-15.4275 115.801875-33.675 23.248125-64.72125 47.2125-92.625 71.304375-20.25375-19.2375-38.461875-38.589375-54.256875-57.7875z m22.921875 329.278125c-39.526875 0-68.2425-8.865-76.815-23.71125-6.76875-11.7225-3-29.746875 1.35375-42.804375 8.349375-25.03875 26.518125-54.995625 52.539375-86.625 15.795-19.2 34.003125-38.55375 54.256875-57.79125 27.901875 24.095625 58.948125 48.058125 92.623125 71.304375 3.294375 40.764375 8.52 79.60875 15.4275 115.80375-52.678125 15.620625-100.485 23.82375-139.385625 23.82375z m385.05 82.39875c-14.383125 38.353125-31.239375 69.06375-48.751875 88.816875C539.260625 934.724375 525.539375 947 512 947c-13.5375 0-27.2625-12.275625-36.391875-22.573125-17.5125-19.753125-34.370625-50.46375-48.751875-88.815-8.73-23.281875-16.385625-48.729375-22.921875-75.8925 34.816875-12.121875 71.0925-27.0225 108.06375-44.565 36.975 17.540625 73.246875 32.446875 108.065625 44.566875-6.53625 27.16125-14.19 52.60875-22.92 75.88875z m290.221875-148.9125c4.351875 13.055625 8.1225 31.08 1.355625 42.8025-8.574375 14.85-37.291875 23.715-76.816875 23.715-38.9025 0-86.709375-8.206875-139.385625-23.829375 6.9075-36.193125 12.135-75.039375 15.429375-115.80375 33.675-23.25 64.72125-47.214375 92.62125-71.304375 20.25375 19.239375 38.461875 38.59125 54.256875 57.7875 26.023125 31.635 44.19 61.59 52.539375 86.6325zM437 512c0-41.4215625 33.5784375-75 75-75s75 33.5784375 75 75-33.5784375 75-75 75-75-33.5784375-75-75z" fill="#027BE3" p-id="1302"></path></svg>