<?xml version="1.0" standalone="no"?><!DOCTYPE svg PUBLIC "-//W3C//DTD SVG 1.1//EN" "http://www.w3.org/Graphics/SVG/1.1/DTD/svg11.dtd"><svg t="1592315200204" class="icon" viewBox="0 0 1024 1024" version="1.1" xmlns="http://www.w3.org/2000/svg" p-id="1504" width="128" height="128" xmlns:xlink="http://www.w3.org/1999/xlink"><defs><style type="text/css"></style></defs><path d="M345.568 148.864c-47.52 10.368-72.672 65.44-67.328 146.976 1.632 23.616 1.376 21.312 6.272 51.488 2.048 12.16 3.424 22.4 3.136 22.688-0.256 0.416-8.608 2.464-18.304 4.768-64.608 14.88-112.16 37.28-140.704 66.24-19.264 19.392-27.328 37.44-27.04 60.224 0.128 12.832 4.384 26.912 12.16 40.448 6.688 11.616 30.592 35.232 46.304 45.888 32.928 22.144 43.04 25.28 52.032 16.256 3.84-3.808 4.64-5.728 4.64-10.24 0-8.736-3.008-12.96-13.248-18.592-45.088-24.992-68.704-50.944-68.704-75.808 0-9.024 3.136-17.216 10.656-27.04 19.808-26.368 67.616-49.984 131.68-65.152 16.928-3.968 20.224-4.224 20.224-1.376 0 3.68 13.664 47.392 22.4 71.296l8.736 24.032-10.784 20.64c-5.888 11.328-14.336 28.544-18.72 38.4-62.688 138.112-73.088 247.776-27.744 292.864a65.28 65.28 0 0 0 33.728 19.264c33.056 8.48 76.768-4.224 125.792-36.608 17.088-11.328 20.896-15.584 20.896-23.072 0-9.024-9.824-17.76-18.592-16.384-2.464 0.416-12.032 5.728-21.184 11.744-20.224 13.504-42.88 24.736-59.296 29.632-16.8 4.928-34.976 5.184-45.344 0.672-31.84-14.08-39.2-70.88-19.392-149.696 9.28-37.44 30.592-93.696 49.856-132.096l7.648-15.424 4.224 9.568c7.936 18.304 38.784 77.984 50.816 98.336 66.528 113.088 141.504 196 208.032 229.888 47.136 24.032 86.048 21.856 112.544-6.432 19.52-20.64 29.088-50.688 30.72-95.744 2.592-77.6-22.688-178.528-72.128-286.72-6.56-14.496-13.12-27.584-14.336-28.96-3.008-3.264-10.656-5.472-15.84-4.384s-11.488 7.392-12.416 12.704c-1.088 5.056 0.128 8.48 12.288 34.816 33.888 73.088 57.632 149.856 66.784 215.808 3.008 21.728 3.552 68.832 0.832 83.328-2.72 14.624-8.064 29.792-13.792 38.528-9.152 14.08-19.68 19.808-37.024 19.68-51.488-0.128-132.64-70.88-204.768-178.272a1027.84 1027.84 0 0 1-87.424-160.352l-8.48-19.52 11.872-20.064c15.296-25.952 31.424-50.528 49.44-75.808l14.336-20.064h22.144c151.904 0 302.688 34.432 379.744 86.464 17.632 11.872 34.56 29.248 40.448 41.248 4.096 8.48 4.64 10.784 4.64 20.48-0.128 9.152-0.672 12.032-3.808 18.016-9.408 18.304-33.344 36.48-66.528 50.944-15.584 6.688-20.48 11.328-20.48 19.264 0 7.36 3.008 12.704 8.736 15.424 6.272 3.008 8.48 2.72 18.592-1.376 47.68-19.264 82.08-47.68 92.896-76.64 19.936-53.28-21.856-107.104-114.048-147.264-80.576-35.232-199.008-57.248-322.24-59.84l-13.536-0.288 15.424-17.76c17.76-20.64 56.96-59.84 73.76-73.888 39.872-33.6 75.552-54.912 106.272-63.648 15.168-4.384 33.888-4.224 43.584 0.128 13.12 5.888 22.272 19.136 27.328 39.616 3.136 12.416 3.136 50.4 0 68.704-3.552 20.224-3.136 23.776 2.336 29.216 3.968 3.968 5.6 4.64 11.328 4.64 12.16 0 15.296-4.512 18.976-26.624 1.92-11.328 2.592-22.144 2.592-44.384 0-25.952-0.416-30.88-3.136-41.664-8.608-34.016-29.632-57.504-57.792-64.192-65.28-15.296-165.152 47.52-264.448 166.656a819.2 819.2 0 0 0-17.088 20.896c-2.048 3.008-3.424 3.264-23.232 4.512a1050.88 1050.88 0 0 0-46.848 4.224c-37.984 4.384-34.976 4.768-37.152-5.056-5.728-27.456-7.648-46.72-7.776-76.48-0.128-32.224 0.96-41.792 6.816-59.68 6.272-18.976 16.928-31.84 30.464-36.32 6.56-2.336 22.688-2.048 32.224 0.416 15.968 4.224 38.528 16.256 59.008 31.68 12.16 9.152 16.384 10.784 22.816 8.608a16.32 16.32 0 0 0 11.744-16.128c0-5.728-0.544-6.816-6.56-12.576-8.48-8.192-33.056-24.576-47.936-31.968-28.128-14.08-52.736-18.592-74.848-13.792z m51.232 242.048c-0.128 0.672-9.024 14.08-19.52 29.92s-20.896 31.84-23.072 35.52l-3.968 6.688-3.264-8.864c-4.096-10.784-16.8-52.576-16.8-55.2 0-2.464 6.016-3.424 50.528-8.064 9.28-0.96 16.672-0.96 16.128 0z m103.968 84.416a49.28 49.28 0 0 0-24.736 18.432c-16.8 24.736-8.608 56.96 17.76 69.92 8.192 4.096 10.24 4.512 21.44 4.512s13.248-0.416 21.44-4.512c35.648-17.472 34.848-69.376-1.376-86.048-9.568-4.384-24.992-5.312-34.56-2.336z" fill="#027BE3" p-id="1505"></path></svg>